<?xml version="1.0" standalone="no"?>
<!DOCTYPE svg PUBLIC "-//W3C//DTD SVG 20010904//EN"
 "http://www.w3.org/TR/2001/REC-SVG-20010904/DTD/svg10.dtd">
<svg version="1.0" xmlns="http://www.w3.org/2000/svg"
 width="50" height="" viewBox="0 0 1200.000000 1329.000000"
 preserveAspectRatio="xMidYMid meet">

<g transform="translate(0.000000,1329.000000) scale(0.100000,-0.100000)"
fill="#000000" stroke="none">
<path d="M5897 13181 c-349 -443 -751 -713 -1207 -813 -93 -20 -132 -22 -345
-22 -233 0 -245 1 -393 32 -171 37 -342 91 -512 163 l-115 49 -21 -26 c-11
-14 -79 -119 -149 -232 -282 -456 -400 -618 -577 -793 -319 -315 -764 -541
-1333 -675 -66 -15 -122 -29 -124 -31 -2 -1 25 -28 60 -59 450 -405 668 -820
744 -1414 29 -234 35 -564 45 -2760 6 -1235 13 -2270 16 -2300 17 -170 60
-358 124 -545 219 -635 650 -1118 1180 -1326 155 -61 306 -96 564 -129 952
-125 1591 -312 1930 -567 78 -59 176 -166 176 -194 0 -5 17 -9 39 -9 34 0 40
4 51 31 20 47 130 153 222 213 367 238 972 408 1874 526 259 33 409 68 564
129 598 235 1073 830 1250 1566 60 249 58 166 69 2545 6 1202 13 2275 16 2384
18 699 150 1131 466 1526 80 101 216 243 313 329 32 28 57 53 55 54 -2 2 -58
16 -124 32 -581 138 -1018 360 -1345 685 -164 163 -300 352 -579 803 -62 102
-123 197 -135 211 l-21 27 -115 -49 c-156 -67 -372 -135 -532 -169 -123 -25
-151 -27 -373 -27 -213 0 -252 2 -345 22 -153 34 -268 74 -415 146 -291 144
-547 359 -790 664 -51 64 -96 112 -106 112 -10 0 -53 -46 -102 -109z m155 -54
c107 -142 339 -372 485 -481 256 -190 511 -302 813 -358 135 -25 418 -30 560
-9 204 29 467 104 661 186 45 20 83 34 84 33 2 -2 49 -77 105 -168 205 -330
283 -452 347 -538 250 -335 500 -546 863 -728 193 -97 440 -188 660 -244 47
-12 87 -24 89 -26 2 -2 -40 -50 -95 -106 -422 -436 -592 -849 -645 -1563 -6
-88 -12 -350 -12 -582 l-1 -423 -966 0 -967 0 -7 128 c-17 329 -78 636 -182
921 -51 139 -192 420 -271 538 -319 478 -745 788 -1224 892 -685 147 -1382
-150 -1851 -789 -305 -417 -482 -928 -520 -1507 l-12 -183 -969 0 -969 0 4
218 c10 456 -13 928 -58 1187 -78 458 -262 815 -599 1163 l-103 107 76 19
c134 32 382 116 527 178 407 173 718 410 968 736 94 123 178 250 350 527 75
121 140 226 145 232 6 10 32 3 107 -28 470 -192 896 -242 1294 -153 281 63
540 191 785 388 107 87 338 321 416 423 30 40 57 72 60 72 3 0 26 -28 52 -62z
m266 -2595 c242 -53 484 -165 692 -321 103 -77 277 -247 365 -357 211 -262
384 -607 474 -945 75 -280 102 -492 102 -789 0 -480 -90 -878 -291 -1285 -121
-246 -258 -440 -433 -616 -385 -387 -844 -571 -1340 -538 -980 66 -1774 1050
-1836 2276 -42 830 236 1595 765 2103 290 279 605 435 999 494 17 2 116 3 220
1 143 -3 213 -8 283 -23z m1961 -5009 c25 -14 59 -30 76 -34 29 -7 28 -7 -10
-8 -55 -2 -84 -21 -32 -21 20 0 64 -7 97 -17 73 -20 81 -43 16 -43 -25 0 -48
-4 -51 -10 -4 -6 6 -10 23 -10 20 0 45 -12 72 -35 23 -19 48 -35 56 -35 21 0
17 -38 -5 -49 -13 -7 -34 -7 -68 1 -41 10 -52 17 -63 43 -11 26 -13 27 -17 10
-9 -37 -24 -46 -77 -44 -48 2 -116 -21 -116 -39 0 -4 -25 -20 -55 -36 -64 -33
-97 -72 -46 -55 17 6 40 9 53 7 20 -3 18 -6 -20 -26 -24 -13 -52 -39 -64 -58
-11 -18 -23 -34 -28 -34 -4 0 -23 -11 -42 -23 -25 -18 -54 -25 -111 -30 -42
-4 -94 -14 -115 -22 -55 -24 -112 -83 -112 -118 0 -34 -73 -117 -125 -141 -43
-21 -95 -21 -95 -1 0 27 28 85 45 91 8 3 15 12 15 19 0 8 6 20 13 27 7 7 19
27 26 43 l14 30 8 -30 7 -30 1 32 c1 42 17 83 43 111 31 32 39 27 22 -13 -8
-19 -10 -35 -5 -35 5 0 12 11 15 25 7 27 39 65 55 65 5 0 3 -14 -6 -31 -22
-43 -10 -47 15 -4 18 29 27 35 54 35 18 0 47 -4 63 -8 37 -11 91 3 99 24 4 9
3 32 0 51 -6 32 -9 34 -33 28 -71 -18 -89 -17 -110 4 -12 12 -21 30 -21 41 0
18 3 19 21 10 50 -27 103 20 97 87 -2 31 -8 39 -31 47 -20 7 -34 7 -48 -3 -18
-10 -23 -10 -35 6 -7 10 -14 26 -14 35 0 22 31 40 51 27 7 -5 25 -8 39 -8 l25
0 -25 11 c-14 6 -38 13 -55 17 -16 4 -31 14 -33 22 -2 14 22 17 180 22 172 6
185 5 211 -14 15 -11 27 -16 27 -11 0 11 -30 37 -52 45 -32 11 -15 38 47 70
44 23 82 21 134 -10z m-5181 -116 c89 -53 296 -212 354 -270 101 -103 137
-172 138 -265 0 -52 -2 -55 -52 -102 l-52 -48 11 -67 c6 -36 19 -77 28 -91 23
-36 115 -76 162 -72 36 3 38 5 45 47 4 24 17 54 28 66 11 12 20 29 20 39 0 27
19 58 61 97 47 43 49 66 8 108 -17 18 -35 46 -41 62 -5 16 -16 29 -23 29 -7 0
-29 18 -48 39 -36 40 -47 42 -47 9 0 -27 -18 -22 -35 11 -31 61 7 126 73 124
252 -4 272 -9 358 -86 27 -24 59 -49 72 -56 12 -6 22 -17 22 -23 0 -9 -3 -9
-12 0 -7 7 -24 12 -40 12 l-27 0 23 -35 c30 -43 38 -100 37 -259 0 -15 8 -45
19 -66 10 -20 17 -46 14 -56 -3 -12 3 -27 15 -38 20 -18 28 -56 14 -69 -3 -4
-18 10 -32 31 -22 31 -26 34 -29 17 -3 -10 1 -21 7 -23 6 -2 11 -10 11 -17 0
-7 5 -15 11 -17 18 -6 -3 -40 -35 -55 -30 -14 -30 -14 22 -8 43 5 53 3 59 -11
4 -11 -1 -22 -12 -30 -25 -19 -27 -41 -4 -47 30 -8 22 -34 -13 -42 l-33 -8 28
-4 c15 -3 27 -6 27 -9 0 -2 -15 -18 -32 -34 -26 -23 -30 -32 -20 -39 20 -13
10 -46 -15 -49 -12 -2 -27 -10 -33 -18 -10 -12 -8 -14 16 -14 l29 -1 -35 -29
c-19 -17 -46 -31 -60 -31 -18 -1 -20 -3 -7 -6 13 -3 17 -11 14 -24 -4 -16 -1
-19 14 -14 25 8 25 -12 -1 -45 -11 -14 -20 -29 -20 -34 0 -5 -7 -18 -17 -28
-9 -11 -11 -18 -5 -18 20 0 13 -28 -9 -35 -19 -6 -20 -7 -2 -20 16 -12 15 -14
-17 -22 -50 -13 -92 -2 -106 27 -31 64 -36 78 -33 96 1 10 -4 33 -11 49 -8 17
-14 35 -15 40 0 6 -10 24 -23 39 -12 16 -22 33 -22 37 0 5 -12 9 -27 9 -45 1
-59 33 -69 150 -5 58 -8 116 -7 130 2 22 1 23 -8 7 -6 -11 -9 -29 -6 -43 2
-13 0 -21 -4 -18 -5 3 -9 20 -9 39 0 19 -4 37 -10 40 -6 4 -10 -7 -10 -27 0
-35 -14 -66 -22 -52 -3 5 -9 32 -13 59 -8 53 -10 52 -20 -7 -9 -55 -22 -46
-30 20 l-7 57 -15 -49 c-18 -60 -31 -46 -26 27 l3 52 -20 -44 c-24 -52 -46
-46 -30 8 l9 34 -22 -22 c-13 -11 -26 -21 -29 -21 -10 0 -2 35 16 69 l18 33
-36 -27 c-41 -31 -47 -19 -16 33 26 42 26 56 1 42 -11 -5 -31 -14 -45 -20 -40
-15 -33 12 9 41 45 31 45 43 -1 24 -20 -8 -48 -15 -62 -15 -24 0 -24 1 -8 19
9 10 32 27 51 37 44 23 45 37 3 30 -65 -11 -77 -11 -80 -1 -2 6 22 22 52 36
l55 27 -57 -4 c-32 -1 -58 1 -58 6 0 5 28 18 63 29 l62 20 -72 0 c-40 1 -73 5
-73 11 0 11 54 26 126 37 48 7 47 8 -46 18 -52 5 -95 15 -95 20 0 6 29 15 65
21 63 11 63 12 20 13 -55 2 -90 10 -90 23 0 5 6 8 13 7 6 -1 19 1 27 4 8 3 31
8 50 10 27 3 22 5 -20 7 l-55 3 45 8 45 7 -53 -1 c-67 -2 -67 8 1 18 l52 7
-48 13 c-57 14 -76 30 -27 21 31 -5 32 -5 10 5 -14 5 -33 8 -42 5 -10 -2 -18
0 -18 5 0 5 17 9 38 9 l37 1 -47 25 c-51 26 -62 45 -25 43 18 -1 19 -2 3 -6
-14 -4 -9 -9 24 -24 54 -24 65 -24 20 1 -27 15 -31 19 -15 20 15 1 13 4 -10
13 -50 20 -95 47 -95 57 0 14 21 12 70 -5 23 -8 44 -15 47 -15 2 0 -24 19 -58
43 -34 23 -65 49 -67 57 -4 11 2 9 19 -5 13 -11 18 -13 11 -4 -6 9 -9 18 -7
21 3 3 -34 45 -82 94 -90 90 -89 98 5 41z m1726 -52 c-53 -52 -92 -95 -89 -95
4 0 1 -7 -6 -17 -13 -15 -12 -15 8 -2 16 9 19 16 10 21 -7 5 -2 8 13 8 25 -1
24 -1 -10 -33 -19 -17 -46 -40 -60 -50 -14 -10 -17 -16 -8 -13 50 15 88 18 88
6 0 -6 -8 -9 -17 -6 -10 3 -34 -4 -53 -14 -42 -23 -32 -27 11 -4 17 8 33 13
36 10 3 -2 -12 -14 -34 -25 -31 -16 -34 -20 -15 -21 35 0 26 -14 -30 -43 l-52
-27 38 0 c54 0 41 -21 -25 -41 l-54 -17 53 -7 c80 -11 64 -33 -26 -37 -40 -1
-42 -2 -12 -5 19 -2 42 -7 50 -10 8 -3 18 -5 23 -5 4 1 7 -2 7 -7 0 -12 -35
-20 -90 -22 -42 -1 -41 -2 23 -13 37 -6 68 -15 68 -21 0 -11 -122 -28 -163
-22 -57 7 -16 -10 51 -22 38 -7 78 -19 88 -26 16 -13 9 -14 -57 -15 l-75 -1
53 -19 c83 -28 86 -40 11 -36 l-64 3 58 -25 c32 -14 56 -30 54 -36 -3 -6 -8
-10 -13 -10 -5 1 -28 4 -51 8 -24 3 -43 3 -43 -1 0 -5 20 -21 45 -36 25 -16
45 -33 45 -38 0 -13 -36 -11 -75 5 -45 19 -44 9 0 -27 45 -36 36 -53 -14 -27
-21 10 -41 16 -44 13 -4 -3 5 -25 20 -50 14 -24 23 -47 19 -50 -3 -4 -22 9
-42 28 l-36 34 27 -53 c31 -59 27 -77 -9 -43 l-23 22 3 -41 c1 -22 -1 -40 -5
-40 -4 0 -17 21 -28 48 l-21 47 6 -69 c6 -78 -9 -85 -30 -13 l-12 42 -6 -52
c-6 -53 -16 -77 -24 -52 -2 8 -8 30 -14 49 l-10 35 -1 -42 c-1 -24 -5 -43 -11
-43 -5 0 -7 -7 -4 -15 4 -8 2 -15 -4 -15 -6 0 -12 38 -14 88 -3 48 -8 94 -12
103 -6 13 1 18 32 22 21 4 54 17 72 29 56 38 72 69 78 146 l4 69 -46 33 c-39
28 -46 39 -48 69 -5 109 22 175 112 274 91 99 417 337 462 337 4 0 -36 -43
-88 -95z m2868 -76 l3 -60 -22 26 c-13 14 -23 39 -23 55 0 85 37 67 42 -21z
m682 -24 c-19 -41 -9 -57 30 -47 20 5 20 5 5 -19 -9 -13 -29 -31 -45 -39 -16
-8 -31 -17 -34 -18 -3 -2 11 -17 30 -34 l35 -29 -45 2 c-47 2 -90 -7 -90 -20
0 -4 11 -13 24 -19 23 -10 25 -17 28 -104 2 -51 -1 -96 -6 -99 -11 -9 34 -39
57 -39 10 0 17 -5 15 -12 -6 -16 -59 -33 -67 -21 -6 9 -89 43 -104 43 -4 0 -7
-9 -7 -21 l0 -21 -35 21 -35 20 -1 -32 c0 -32 0 -32 -12 -7 -11 24 -11 24 -15
-15 -5 -57 -22 -69 -22 -15 l0 43 -22 -20 c-25 -22 -148 -87 -154 -80 -2 2 1
18 6 37 10 36 56 90 76 90 7 0 16 5 19 10 3 6 -3 10 -13 10 -11 0 -37 -18 -58
-40 -22 -22 -63 -52 -91 -66 -29 -14 -62 -37 -73 -51 l-20 -26 0 38 c0 45 37
114 77 144 24 17 26 22 13 31 -26 17 -112 12 -148 -10 -39 -24 -42 -24 -42 -5
0 26 60 83 108 102 37 14 75 18 179 18 73 0 133 3 133 6 0 11 -29 19 -68 19
-36 0 -36 0 -13 16 37 27 121 44 175 37 36 -4 47 -3 42 6 -4 6 -35 11 -77 11
-66 0 -69 1 -59 19 5 11 37 33 71 50 68 34 63 46 -16 39 -25 -2 -45 -2 -45 -1
0 2 27 16 60 33 34 17 58 35 55 39 -7 13 18 20 96 27 55 6 72 11 80 26 19 35
21 11 3 -27z m91 -36 c22 -23 53 -47 69 -54 28 -12 28 -13 9 -23 -17 -9 -25
-8 -43 8 -13 11 -30 20 -38 20 -9 0 -5 -8 12 -21 14 -11 26 -29 26 -39 0 -10
12 -28 26 -39 22 -17 24 -22 10 -27 -9 -3 -33 -3 -54 0 l-37 7 25 -20 c14 -11
37 -25 52 -32 26 -11 27 -12 13 -39 -26 -50 -71 -80 -123 -81 -43 0 -45 -1
-22 -12 14 -6 27 -13 30 -15 10 -7 -27 -22 -56 -22 -39 0 -44 14 -44 121 0 68
-3 78 -22 92 -22 15 -20 16 38 16 42 1 66 6 74 16 10 12 10 15 -3 15 -8 0 -25
9 -38 20 -21 17 -21 19 -6 20 26 0 67 45 67 74 0 23 -3 25 -31 19 -30 -6 -30
-5 -18 16 20 31 40 26 84 -20z m-5482 -16 c4 -2 7 -11 7 -19 0 -12 -6 -11 -40
2 -21 9 -45 14 -52 12 -6 -2 24 -19 68 -37 43 -17 90 -38 104 -46 l25 -14 -23
-1 c-56 -1 -227 94 -201 112 13 8 94 2 112 -9z m2072 7 c8 -14 -68 -66 -133
-90 -94 -35 -92 -17 3 24 50 22 94 43 100 48 16 14 -25 9 -56 -8 -29 -14 -31
-14 -27 3 5 25 100 45 113 23z m2765 -5 c-7 -8 -24 -15 -39 -15 l-26 0 25 14
c36 20 56 20 40 1z m-727 -33 c23 -16 55 -32 71 -36 16 -4 42 -20 58 -37 17
-16 33 -28 35 -25 3 3 39 -13 80 -36 69 -38 77 -40 128 -33 119 14 123 -22 17
-157 -50 -65 -73 -72 -115 -35 -14 12 -45 34 -69 49 -25 15 -54 45 -67 69 -13
23 -19 39 -12 35 6 -4 11 -1 11 7 0 22 -22 27 -114 27 -75 0 -85 2 -106 25
l-23 25 39 16 c21 9 34 19 27 21 -7 2 -21 -1 -33 -7 -16 -9 -25 -8 -36 1 -22
18 -17 38 19 60 31 20 31 21 5 15 -33 -8 -48 12 -23 31 29 20 62 16 108 -15z
m-4066 -88 c11 -3 23 -14 26 -24 5 -18 3 -18 -47 0 -57 22 -66 24 -66 12 0 -5
39 -21 86 -36 47 -16 84 -30 82 -32 -2 -2 -27 0 -55 5 -51 8 -143 54 -143 71
0 11 82 13 117 4z m1983 -4 c0 -20 -79 -61 -135 -70 -32 -5 -60 -8 -62 -6 -2
2 34 15 81 30 47 14 88 31 91 36 9 14 -5 12 -55 -5 -23 -8 -46 -15 -51 -15
-15 0 2 29 19 33 33 9 112 7 112 -3z m-1930 -106 c0 -10 -6 -14 -17 -10 -50
15 -73 17 -73 8 0 -5 30 -16 68 -25 66 -15 67 -15 22 -16 -46 -1 -111 24 -118
47 -3 9 13 12 57 12 49 0 61 -3 61 -16z m1885 6 c10 -16 -71 -50 -117 -49
l-43 0 60 16 c33 8 64 19 70 24 12 12 -11 12 -53 0 -25 -8 -32 -7 -32 5 0 10
14 14 54 14 30 0 57 -4 61 -10z m-1867 -79 c4 -11 -5 -12 -42 -7 -27 4 -46 3
-46 -2 0 -5 21 -13 46 -17 26 -3 56 -10 68 -15 17 -7 12 -9 -22 -9 -46 -1
-130 35 -116 49 21 21 105 21 112 1z m1835 2 c28 -17 -59 -57 -114 -51 -31 3
-28 5 29 18 68 15 86 34 22 24 -34 -6 -40 -4 -40 11 0 15 6 16 48 10 26 -4 50
-9 55 -12z m2881 -62 c3 -5 -2 -15 -11 -22 -40 -34 -73 -102 -73 -153 0 -71
12 -85 33 -41 15 31 95 95 119 95 4 0 8 -17 8 -38 l0 -39 85 44 c47 23 88 43
91 43 4 0 4 -13 2 -30 -3 -20 0 -30 9 -30 7 0 13 -4 13 -9 0 -9 -34 -55 -62
-83 -9 -9 -20 -34 -24 -54 -9 -46 21 -105 84 -167 l43 -42 132 -5 c84 -4 141
-11 157 -19 59 -32 100 -73 110 -109 12 -46 52 -72 112 -72 94 0 174 105 149
196 -5 20 -28 64 -50 97 -50 78 -61 107 -61 163 0 53 16 88 60 129 29 28 36
30 108 29 83 -1 120 -14 161 -57 26 -29 41 -110 22 -121 -6 -4 -11 -1 -11 6 0
9 -3 9 -10 -2 -8 -12 -10 -9 -10 11 0 32 -16 47 -60 56 -28 5 -32 4 -27 -10 4
-10 2 -17 -3 -17 -14 0 -42 31 -63 69 -15 29 -21 32 -45 27 -15 -4 -39 -20
-54 -37 -23 -24 -28 -38 -28 -81 0 -46 7 -64 55 -144 62 -102 72 -140 55 -202
-13 -51 -72 -119 -117 -139 -42 -17 -121 -17 -155 1 -26 14 -27 14 -33 -26 -4
-22 -16 -49 -27 -60 -51 -51 -88 -224 -64 -298 11 -32 15 -35 48 -33 46 3 70
-23 72 -77 1 -39 -4 -46 -84 -123 -47 -45 -126 -129 -177 -187 -76 -87 -99
-107 -133 -116 -36 -10 -40 -10 -40 8 0 10 7 34 14 53 8 19 11 35 7 35 -8 0
-20 -26 -34 -70 -2 -9 -16 -16 -31 -18 -24 -2 -26 1 -26 38 0 21 5 42 10 45 6
3 10 11 10 18 0 23 -22 -11 -29 -45 -4 -18 -14 -34 -22 -36 -13 -2 -14 6 -9
50 8 74 12 78 79 78 50 0 61 4 85 29 16 16 39 32 51 35 34 9 113 101 121 141
8 46 -20 94 -71 120 -22 11 -59 30 -82 43 -24 12 -46 23 -50 23 -18 2 -64 43
-77 67 -8 15 -22 65 -32 111 -21 96 -68 173 -124 201 -19 10 -73 25 -119 34
-119 22 -182 56 -267 144 -80 82 -120 147 -130 210 l-7 42 94 -34 c52 -19 112
-42 134 -51 27 -12 40 -14 43 -6 2 6 10 11 18 11 8 0 14 7 14 15 0 9 10 15 26
15 14 0 23 4 20 8 -3 5 19 16 49 26 79 25 173 101 152 123 -5 4 -23 -9 -40
-30 -35 -40 -99 -72 -165 -83 -26 -4 -42 -12 -42 -20 0 -8 -9 -14 -21 -14 -11
0 -17 -4 -14 -10 3 -5 -4 -11 -17 -11 -30 -2 -20 -5 -128 36 -52 20 -128 41
-168 47 -67 11 -72 13 -55 26 17 13 16 14 -5 7 -13 -4 -45 -19 -70 -35 -42
-25 -53 -27 -107 -21 -51 5 -60 9 -60 26 0 12 12 25 30 34 22 11 26 16 13 19
-26 5 -58 -16 -58 -39 0 -11 -4 -17 -10 -14 -5 3 -10 20 -10 36 0 24 6 33 33
44 24 11 27 14 11 15 -24 0 -47 -17 -62 -45 -10 -19 -11 -18 -17 8 -5 20 -2
33 11 49 32 35 63 41 112 22 37 -14 50 -15 81 -4 41 13 39 13 193 4 59 -3 120
-3 134 0 15 4 57 36 93 70 36 35 82 73 101 85 35 21 104 29 114 12z m-4700
-26 c5 -15 -6 -15 -66 2 -10 2 -18 0 -18 -5 0 -6 19 -13 43 -17 23 -4 49 -11
57 -15 13 -8 13 -9 -1 -15 -18 -7 -129 32 -129 45 0 23 105 28 114 5z m1803
-1 c2 -6 -19 -21 -46 -33 -54 -23 -77 -26 -86 -12 -3 5 20 15 50 21 30 6 55
16 55 21 0 8 -28 5 -67 -7 -7 -2 -13 3 -13 12 0 12 11 14 52 12 28 -2 53 -8
55 -14z m3328 -38 c19 -14 19 -14 0 -36 -11 -12 -32 -28 -47 -36 l-27 -14 11
30 c5 17 17 30 25 30 10 0 12 6 8 20 -7 23 4 26 30 6z m-65 -33 c0 -12 -47
-53 -62 -53 -5 0 -2 13 7 30 8 16 15 36 15 45 0 13 3 13 20 3 11 -7 20 -18 20
-25z m-5005 -31 c36 -13 13 -14 -62 -3 -29 4 -53 4 -53 0 0 -5 22 -11 49 -15
34 -4 48 -10 45 -19 -6 -14 -68 -4 -112 19 -19 10 -22 15 -11 22 20 12 92 21
104 13 6 -3 24 -11 40 -17z m1724 3 c2 -3 0 -9 -5 -14 -13 -13 -111 -41 -118
-34 -14 14 -3 21 44 27 28 4 50 11 50 17 0 6 -8 8 -17 5 -10 -2 -43 -7 -73
-11 l-55 -6 40 19 c31 14 49 17 84 10 24 -4 47 -10 50 -13z m-1665 -86 c29 -1
28 -2 -9 -10 -22 -4 -61 -8 -87 -8 -29 -1 -48 -6 -48 -12 0 -8 16 -10 50 -5
43 6 49 5 43 -10 -5 -13 -15 -15 -57 -9 -28 3 -55 10 -59 14 -18 18 62 53 107
46 16 -3 43 -6 60 -6z m1586 -5 c62 -25 54 -39 -27 -49 -42 -6 -51 -4 -57 10
-5 15 -1 16 44 10 34 -5 50 -3 50 4 0 6 -17 11 -39 11 -21 0 -60 3 -87 7 l-49
8 50 6 c28 3 56 7 62 7 7 1 31 -5 53 -14z m-1648 -92 c-23 -2 -42 -8 -42 -14
0 -7 16 -8 48 -3 44 6 46 5 31 -10 -13 -13 -26 -15 -63 -10 -25 4 -46 11 -46
17 0 5 19 17 42 28 33 15 46 16 57 7 12 -10 7 -13 -27 -15z m1635 -4 c22 -18
14 -27 -32 -33 -34 -6 -48 -3 -61 9 -15 16 -13 17 36 10 39 -5 51 -4 46 5 -4
6 -26 11 -49 11 -38 1 -40 2 -23 15 19 14 54 7 83 -17z m-1549 -83 c2 -2 -17
-6 -42 -9 -25 -4 -48 -12 -52 -18 -4 -7 7 -8 35 -3 50 8 57 -11 7 -20 -73 -14
-91 6 -37 42 24 16 41 21 60 16 14 -3 27 -7 29 -8z m1506 -11 c29 -20 35 -28
25 -35 -27 -17 -99 -8 -99 12 0 5 19 6 42 3 27 -5 39 -4 35 3 -4 6 -28 14 -54
18 -38 6 -44 9 -28 16 31 12 38 11 79 -17z m-1504 -86 c-66 -31 -71 -51 -6
-24 29 12 36 12 36 2 0 -8 -20 -19 -44 -25 -58 -14 -66 -14 -66 4 0 24 79 75
114 74 28 -1 24 -4 -34 -31z m1451 -7 c24 -21 41 -42 37 -46 -12 -12 -118 15
-118 31 0 12 5 12 36 -1 20 -8 40 -15 45 -15 14 0 10 20 -3 21 -7 0 -35 11
-63 24 l-50 23 36 1 c29 1 46 -7 80 -38z m-1321 -25 c0 -3 -28 -21 -62 -42
-34 -21 -57 -39 -51 -41 7 -3 30 7 52 21 49 31 55 32 41 7 -11 -22 -89 -55
-116 -49 -16 3 -14 9 17 43 21 22 53 44 75 51 22 6 40 12 42 13 1 1 2 -1 2 -3z
m1265 -60 c31 -40 31 -46 3 -46 -33 1 -89 31 -106 58 -14 21 -11 20 36 -8 28
-18 56 -30 63 -28 7 2 -13 19 -44 37 -72 41 -80 54 -22 34 28 -9 55 -28 70
-47z m-1172 -3 c-29 -47 -66 -84 -106 -105 -22 -10 -41 -17 -44 -14 -16 15 39
96 65 96 11 0 6 -10 -18 -35 -61 -63 -23 -48 47 19 37 36 69 65 71 66 1 0 -5
-12 -15 -27z m977 -2 c0 -13 111 -103 118 -96 4 4 -11 22 -33 41 -35 30 -37
34 -18 34 16 0 31 -13 48 -40 45 -71 28 -79 -53 -24 -29 19 -56 43 -59 52 -3
9 -13 25 -21 35 -14 16 -14 17 1 11 9 -3 17 -9 17 -13z m-765 -144 c-13 -39
-27 -80 -30 -89 -4 -10 -3 -18 3 -18 6 0 19 25 29 56 15 49 19 53 27 35 7 -16
2 -31 -20 -68 -16 -25 -33 -47 -39 -47 -20 -2 -16 65 11 176 27 112 28 112 35
70 6 -33 3 -59 -16 -115z m-132 91 c-10 -17 -43 -56 -73 -87 -54 -55 -55 -55
-58 -29 -4 34 23 88 44 88 13 0 10 -8 -11 -36 -15 -19 -24 -38 -20 -42 4 -4
16 7 28 23 25 35 98 115 104 115 2 0 -4 -14 -14 -32z m874 -63 c19 -26 38 -44
41 -41 3 4 -4 20 -16 36 -26 34 -27 40 -8 40 16 0 51 -81 44 -101 -6 -17 -105
76 -132 122 l-20 33 28 -21 c15 -12 43 -43 63 -68z m-1433 30 c4 -12 -17 -45
-29 -45 -2 0 -10 7 -19 15 -20 20 -10 45 19 45 13 0 25 -7 29 -15z m631 -35
c-32 -64 -95 -134 -108 -121 -5 5 -3 31 8 67 13 46 19 55 26 41 7 -11 5 -26
-6 -46 -17 -34 -18 -41 -7 -41 5 0 14 12 21 28 12 25 81 122 88 122 2 0 -8
-23 -22 -50z m635 -107 c0 -29 -3 -53 -7 -53 -15 0 -51 67 -43 79 5 9 11 2 20
-21 7 -18 14 -27 17 -20 3 7 -2 31 -11 53 -11 28 -14 53 -10 77 l7 37 14 -50
c7 -27 13 -74 13 -102z m81 45 c11 -21 24 -38 29 -38 14 0 13 5 -9 42 -19 30
-19 48 -2 48 9 0 31 -69 31 -99 0 -11 -4 -21 -9 -21 -15 0 -76 80 -100 130
l-22 45 31 -35 c18 -19 41 -52 51 -72z m-1301 -3 c0 -18 -5 -25 -19 -25 -11 0
-23 5 -26 10 -11 18 3 40 25 40 15 0 20 -7 20 -25z m4929 -74 c18 -28 34 -70
40 -108 5 -34 17 -76 26 -93 9 -18 15 -33 13 -35 -2 -1 -22 -12 -45 -24 -71
-35 -97 -98 -50 -122 29 -16 37 -28 37 -60 0 -29 -13 -37 -115 -70 -54 -17
-80 -32 -112 -66 -23 -23 -51 -43 -61 -43 -11 0 -25 -6 -31 -14 -6 -8 -27 -16
-46 -18 -44 -5 -46 13 -7 49 22 21 23 24 5 14 -12 -6 -28 -20 -35 -30 -16 -22
-68 -25 -68 -4 0 32 134 134 219 168 30 11 56 26 58 32 6 17 -56 59 -117 80
-46 15 -56 23 -63 49 -7 25 -4 41 18 85 66 130 122 190 217 234 20 9 39 26 42
38 5 20 6 20 25 2 12 -10 34 -39 50 -64z m-4965 3 c9 -3 16 -17 16 -31 0 -21
-4 -24 -27 -21 -31 3 -44 35 -21 49 16 11 13 10 32 3z m101 -135 c0 -15 -7
-25 -18 -27 -22 -4 -33 24 -17 43 18 21 35 13 35 -16z m-55 -44 c16 -19 6 -45
-19 -45 -23 0 -35 28 -20 46 15 18 24 18 39 -1z m226 -40 c11 -17 15 -37 11
-60 -6 -34 -5 -35 21 -29 15 4 53 15 85 26 66 21 84 19 117 -17 20 -22 21 -25
6 -31 -9 -3 -30 -4 -46 -2 -16 3 -32 0 -34 -6 -3 -7 -8 -6 -14 2 -7 11 -11 10
-17 -5 -7 -16 -9 -15 -15 7 -7 23 -8 23 -9 4 -1 -26 -45 -41 -67 -23 -12 9
-13 9 -9 -3 4 -10 -2 -17 -17 -22 -38 -10 -45 -7 -66 26 l-21 32 25 23 c13 12
24 26 24 31 0 18 -29 34 -50 27 -21 -7 -25 1 -12 21 7 11 31 20 59 23 7 0 20
-10 29 -24z m1448 10 c-18 -14 -17 -15 8 -5 18 6 29 6 33 -1 4 -5 10 -7 15 -4
4 3 6 -4 3 -15 -4 -15 -9 -17 -23 -10 -14 7 -23 6 -34 -6 -21 -20 -20 -27 4
-49 27 -24 25 -47 -4 -74 -22 -21 -27 -22 -60 -10 -20 7 -36 20 -37 29 0 10
-2 11 -6 3 -8 -21 -33 -15 -43 10 -7 17 -9 18 -9 5 -1 -20 -21 -25 -21 -5 0 8
-4 7 -11 -3 -7 -11 -12 -12 -15 -3 -3 7 -12 9 -21 6 -13 -5 -15 -2 -10 18 5
22 5 22 -7 7 -14 -19 -56 -25 -56 -9 0 6 15 21 33 35 l33 25 77 -24 c103 -33
107 -33 100 9 -4 28 -1 39 20 60 15 14 32 26 38 26 7 0 4 -7 -7 -15z m-1586
-17 c20 -20 13 -32 -8 -13 -27 25 -73 13 -68 -18 2 -12 13 -26 26 -32 23 -10
30 -25 11 -25 -26 0 -49 22 -49 48 0 35 16 52 50 52 14 0 31 -5 38 -12z m709
-10 c-5 -21 -5 -21 7 -5 7 9 15 17 17 17 3 0 5 -8 6 -17 1 -10 3 -26 5 -35 2
-9 -1 -17 -7 -17 -5 0 -9 8 -7 19 2 14 -2 17 -18 13 -21 -5 -25 3 -14 31 9 24
17 19 11 -6z m1044 12 c13 -7 19 -21 19 -44 0 -35 -12 -45 -53 -47 l-22 0 23
-11 c24 -12 28 -38 12 -69 -11 -19 -35 -24 -64 -13 -27 10 -18 22 17 20 26 -1
33 3 35 21 2 13 -5 27 -17 36 -20 13 -20 14 20 30 33 13 40 20 37 39 -4 29
-42 36 -69 12 -17 -15 -19 -15 -19 -1 0 30 46 45 81 27z m-791 -31 c0 -22 -11
-24 -28 -7 -18 18 -14 32 5 17 15 -12 16 -12 10 4 -4 11 -3 16 3 12 6 -3 10
-15 10 -26z m-181 -26 c1 9 6 17 12 17 5 0 8 -4 5 -9 -4 -5 -2 -20 3 -33 9
-21 10 -21 12 -3 1 12 5 5 9 -15 l7 -35 2 35 1 35 13 -25 c11 -21 11 -27 -2
-37 -13 -10 -18 -9 -27 2 -6 8 -14 12 -17 8 -4 -3 -7 5 -7 18 -1 22 -1 23 -11
5 -15 -24 -28 -4 -21 32 5 24 6 25 13 7 6 -17 8 -17 8 -2z m127 8 c14 11 15
10 18 -21 1 -5 -3 -11 -9 -12 -5 0 -16 -8 -23 -17 -10 -12 -15 -13 -18 -3 -3
6 -10 10 -15 6 -11 -6 -12 7 -3 31 5 13 8 14 15 3 7 -10 9 -8 10 7 0 11 3 14
6 7 4 -10 8 -10 19 -1z m237 -99 c78 -76 148 -222 107 -222 -16 0 -70 29 -106
56 l-32 23 20 -51 c20 -54 21 -129 1 -135 -14 -5 -93 64 -102 91 -4 10 -6 -19
-3 -65 3 -66 1 -87 -10 -97 -22 -17 -42 2 -82 77 l-34 65 -7 -50 c-11 -81 -24
-120 -45 -139 -19 -17 -21 -17 -39 -1 -11 10 -25 41 -31 69 -19 85 -19 85 -51
29 -16 -29 -37 -56 -46 -59 -29 -11 -45 26 -41 97 l4 65 -40 -42 c-24 -28 -47
-43 -62 -43 -21 0 -24 5 -24 35 0 19 9 57 19 85 11 27 18 50 16 50 -1 0 -29
-16 -61 -35 -32 -19 -63 -34 -69 -32 -21 7 -16 58 9 101 37 63 117 147 166
175 40 22 41 22 31 3 -18 -34 -14 -55 9 -49 17 4 20 2 15 -14 -7 -21 6 -25 33
-10 15 8 18 5 17 -25 -2 -33 -1 -34 22 -19 22 14 23 14 23 -5 0 -12 6 -27 13
-34 10 -11 14 -7 23 23 l12 36 7 -32 c4 -18 13 -33 20 -33 8 0 17 15 21 33 l7
32 14 -33 c14 -34 33 -35 33 -2 0 14 7 18 28 17 15 -1 33 -9 40 -17 7 -8 4 4
-8 28 -11 23 -16 42 -11 42 5 0 13 -4 16 -10 10 -16 35 -11 35 7 0 14 5 12 27
-8 19 -16 22 -17 12 -4 -11 13 -14 27 -9 40 5 13 1 29 -12 47 l-19 28 48 -21
c26 -11 70 -41 96 -67z m-1173 33 c-20 -24 -4 -48 28 -43 32 5 51 -10 49 -38
-3 -24 33 -31 49 -9 8 11 14 13 19 5 11 -18 -25 -50 -56 -50 -30 0 -45 25 -35
58 5 15 1 17 -29 14 -29 -4 -36 0 -46 21 -14 31 -6 57 17 57 13 0 14 -3 4 -15z
m1688 -109 c-3 -28 -6 -31 -37 -29 -37 1 -67 25 -56 43 5 8 12 7 26 -6 27 -24
53 -11 44 23 -6 24 -4 25 10 13 10 -8 15 -25 13 -44z m2744 -130 c-16 -19 -32
-40 -35 -48 -3 -10 -7 -10 -17 -1 -11 10 -7 19 21 48 44 45 71 47 31 1z"/>
<path d="M5884 12172 l-110 -227 -245 -34 c-134 -19 -248 -36 -253 -39 -5 -3
73 -85 174 -181 l183 -176 -43 -242 c-23 -133 -40 -247 -38 -252 1 -6 101 41
220 104 120 63 223 115 230 115 7 0 110 -52 228 -115 118 -63 217 -110 218
-104 2 5 -15 118 -38 252 l-43 241 183 176 c101 97 180 179 174 182 -5 3 -119
20 -253 39 l-245 34 -110 227 c-61 126 -113 228 -116 228 -3 0 -55 -102 -116
-228z m98 -444 c-7 -7 -638 125 -649 135 -1 2 97 18 219 35 l223 32 104 -102
105 -103 -99 108 -99 108 100 200 99 200 3 -302 c1 -167 -1 -306 -6 -311z
m226 212 c-2 -5 -45 -55 -97 -112 l-94 -103 104 103 104 102 223 -32 c122 -17
220 -33 219 -35 -9 -8 -633 -143 -644 -138 -10 3 -13 74 -12 312 l0 308 100
-198 c55 -110 99 -203 97 -207z m-557 -161 c222 -49 326 -76 326 -85 0 -7 -4
-11 -9 -8 -4 3 -80 -32 -168 -77 l-160 -82 -143 138 c-78 76 -153 149 -167
162 -13 13 -20 23 -15 23 6 0 157 -32 336 -71z m879 -86 c-89 -87 -167 -159
-171 -161 -5 -2 -78 33 -164 78 -85 45 -159 79 -163 76 -5 -3 -9 1 -9 8 0 9
102 35 316 83 174 39 325 72 335 72 12 1 -40 -57 -144 -156z m-560 -17 c0 -3
-88 -141 -195 -307 -108 -166 -194 -303 -192 -306 2 -2 94 135 203 304 l199
308 3 -204 c1 -113 -1 -208 -6 -213 -5 -5 -97 -55 -205 -112 -140 -74 -197
-99 -201 -90 -6 14 69 452 78 462 9 8 300 161 309 162 4 0 7 -2 7 -4z m223
-77 c84 -45 153 -83 155 -84 11 -9 80 -451 73 -458 -8 -8 -345 159 -395 196
-14 11 -16 38 -14 217 l3 204 199 -307 c109 -169 201 -306 203 -303 2 2 -84
139 -192 305 -107 166 -195 304 -195 306 0 10 15 3 163 -76z"/>
<path d="M2889 10146 c-97 -201 -112 -225 -136 -230 -16 -3 -127 -19 -248 -37
-121 -17 -221 -32 -223 -34 -2 -2 78 -84 177 -182 l180 -178 -43 -245 c-24
-135 -42 -247 -41 -248 2 -2 102 48 222 112 121 64 223 116 228 116 5 0 107
-52 228 -116 120 -64 220 -114 221 -112 1 1 -17 113 -41 248 l-43 245 180 179
c99 99 179 180 178 182 -2 1 -102 16 -223 33 -121 18 -233 34 -249 37 -26 6
-38 26 -137 230 -60 123 -111 224 -115 224 -3 0 -55 -101 -115 -224z m111
-132 c0 -281 -2 -315 -15 -304 -8 7 -56 57 -105 111 l-91 97 103 206 c57 113
104 206 105 206 2 0 3 -142 3 -316z m118 -205 c-56 -60 -103 -109 -105 -109
-2 0 -3 143 -2 318 l0 317 104 -209 104 -208 -101 -109z m-238 -4 c58 -58 100
-105 95 -105 -20 -1 -635 135 -635 140 0 3 96 20 213 37 116 17 214 31 217 32
3 0 52 -46 110 -104z m587 69 c112 -16 199 -31 195 -35 -8 -8 -592 -139 -619
-139 -11 0 19 38 83 104 71 74 105 103 119 101 11 -2 111 -16 222 -31z m-807
-120 c168 -37 308 -70 312 -73 3 -3 -69 -45 -160 -92 l-167 -87 -170 165
c-122 118 -163 163 -145 160 14 -3 162 -36 330 -73z m1040 73 c0 -2 -76 -76
-170 -165 l-169 -163 -165 88 c-90 48 -162 90 -159 93 4 5 624 147 651 149 6
1 12 0 12 -2z m-726 -179 c-4 -7 -95 -147 -201 -312 -107 -164 -192 -300 -190
-302 2 -3 82 116 177 263 96 148 189 290 207 318 l33 50 0 -215 0 -215 -206
-109 c-118 -62 -209 -105 -214 -100 -10 10 67 467 78 472 4 1 75 38 157 81
158 83 171 89 159 69z m306 -400 c74 -114 136 -205 138 -203 2 2 -84 140 -192
306 -108 166 -195 304 -193 305 3 3 312 -157 321 -167 3 -2 21 -99 41 -214 20
-116 38 -218 42 -229 3 -11 1 -16 -5 -12 -6 3 -12 2 -14 -4 -1 -5 -94 39 -205
98 l-203 107 0 214 0 215 68 -105 c37 -57 128 -197 202 -311z"/>
<path d="M8886 10146 l-108 -224 -62 -11 c-33 -5 -148 -22 -255 -37 l-194 -28
184 -177 184 -176 -42 -249 c-23 -136 -41 -250 -39 -251 2 -2 101 48 222 112
120 63 222 115 226 115 5 0 106 -52 225 -115 120 -63 219 -112 221 -110 2 2
-15 114 -39 250 l-43 245 183 176 c100 97 181 178 179 179 -2 2 -115 19 -252
39 -137 20 -250 37 -251 39 0 1 -50 102 -110 225 -60 122 -111 222 -114 222
-4 0 -55 -101 -115 -224z m114 -133 l0 -318 -86 85 c-47 47 -94 97 -105 112
l-20 28 100 205 c55 113 102 205 105 205 3 0 6 -143 6 -317z m210 -96 c0 -7
-43 -55 -95 -107 -52 -52 -95 -99 -95 -105 1 -5 47 38 103 97 l102 107 225
-33 c124 -18 218 -36 210 -39 -29 -12 -635 -144 -642 -140 -5 2 -8 146 -8 320
l0 316 100 -202 c55 -111 100 -208 100 -214z m-332 -113 c59 -62 98 -112 95
-120 -3 -7 -64 -43 -136 -80 -73 -37 -146 -75 -164 -85 l-31 -19 -166 161
c-92 89 -165 163 -163 165 2 2 145 -28 318 -66 173 -39 321 -69 329 -68 8 2
-128 35 -303 73 -174 39 -317 72 -317 75 0 3 96 20 213 37 116 17 215 31 219
32 3 0 51 -47 106 -105z m821 23 c-2 -1 -79 -76 -171 -166 l-166 -163 -166 88
c-91 48 -163 90 -160 93 3 3 148 38 322 78 288 65 354 78 341 70z m-701 -382
l-3 -210 -203 -108 c-112 -60 -205 -107 -207 -105 -2 2 86 142 196 312 110
169 198 310 196 312 -2 2 -93 -133 -202 -301 -108 -168 -199 -304 -201 -302
-7 6 74 451 82 454 5 2 76 39 159 82 82 44 157 79 167 78 17 -1 18 -15 16
-212z m333 56 c24 -13 27 -27 63 -234 21 -120 36 -221 34 -223 -4 -4 -398 600
-398 611 0 5 214 -104 301 -154z m-136 -126 c93 -143 184 -284 203 -314 l35
-54 -34 20 c-19 11 -114 62 -211 112 l-178 93 0 211 c0 117 4 207 9 202 4 -6
84 -127 176 -270z"/>
<path d="M5909 10216 l-76 -71 38 -505 c21 -278 38 -523 36 -545 -2 -32 -6
-41 -23 -43 -26 -4 -15 -60 -100 528 -37 256 -70 469 -74 473 -4 4 -34 -18
-68 -50 l-62 -58 100 -450 c55 -247 100 -453 100 -456 0 -3 -23 -11 -52 -19
-28 -7 -96 -35 -151 -62 -54 -28 -100 -48 -101 -46 -2 1 -76 112 -165 246
l-161 242 -65 0 c-36 0 -65 -3 -65 -7 0 -5 90 -125 200 -267 189 -245 199
-261 183 -278 -10 -12 -20 -15 -27 -9 -6 6 -114 129 -241 275 l-230 265 -82 0
-83 1 0 -82 1 -83 274 -240 c257 -224 273 -240 258 -257 -8 -10 -21 -15 -27
-11 -6 3 -124 93 -263 200 -139 106 -254 193 -257 193 -3 0 -6 -30 -6 -67 l0
-68 241 -159 c132 -88 242 -163 244 -166 2 -4 -16 -44 -40 -91 -24 -46 -53
-118 -66 -159 -12 -41 -23 -76 -24 -78 -2 -2 -132 22 -290 54 l-287 57 -49
-49 -49 -50 292 -38 c405 -52 368 -44 368 -72 0 -16 -6 -24 -17 -24 -10 0
-175 9 -366 21 l-348 22 -57 -56 -57 -57 58 -58 57 -57 337 22 c431 28 393 28
393 -1 0 -29 26 -23 -355 -72 -159 -21 -292 -39 -295 -41 -2 -2 17 -25 43 -51
l47 -47 272 54 c150 30 280 56 288 58 12 3 22 -15 39 -77 13 -45 44 -120 68
-167 24 -47 43 -87 41 -88 -2 -1 -112 -75 -245 -164 l-243 -161 0 -65 c0 -36
3 -65 8 -65 4 0 124 90 266 200 250 192 260 199 279 183 22 -20 55 13 -310
-305 l-222 -193 0 -82 -1 -83 83 0 82 1 240 274 c224 257 240 273 257 258 10
-8 15 -21 11 -27 -4 -6 -94 -124 -200 -263 -106 -139 -193 -255 -193 -258 0
-3 30 -5 66 -3 l67 3 164 242 164 242 73 -38 c40 -22 105 -49 144 -62 49 -15
72 -28 72 -38 0 -9 -43 -207 -95 -441 l-94 -425 60 -57 c33 -32 63 -58 67 -58
4 0 38 215 76 478 38 262 71 483 74 490 4 11 37 9 50 -3 2 -2 -13 -240 -34
-530 l-38 -527 74 -69 c41 -38 77 -68 80 -68 3 0 38 31 79 68 l74 69 -37 498
c-20 275 -36 514 -36 532 0 27 4 32 25 32 17 0 26 -7 30 -22 6 -31 135 -920
135 -936 0 -22 14 -13 77 46 l61 57 -98 435 c-85 380 -95 436 -81 442 9 4 43
15 75 24 33 10 97 37 143 61 l83 43 162 -243 163 -242 68 -3 c37 -2 67 0 67 3
0 3 -87 119 -193 258 -107 139 -197 257 -200 263 -4 6 1 19 11 27 17 15 33 -1
257 -258 l240 -274 83 -1 82 0 -1 83 0 82 -275 239 c-258 226 -273 241 -258
258 9 10 22 14 29 10 6 -4 123 -92 259 -197 136 -104 251 -191 256 -193 6 -2
10 25 10 62 l0 66 -242 161 c-134 89 -245 163 -247 166 -3 2 5 20 18 41 36 61
71 142 94 220 16 55 25 72 37 69 8 -2 138 -28 288 -58 l272 -54 47 47 c26 26
45 49 43 51 -3 2 -135 21 -295 41 -402 52 -363 44 -357 72 5 29 -22 29 405 1
l327 -22 57 57 58 58 -57 57 -57 56 -338 -21 c-421 -28 -393 -28 -393 2 0 26
-41 18 448 82 l213 28 -50 50 -49 49 -287 -57 c-158 -32 -288 -56 -290 -54 -1
2 -12 37 -24 78 -13 40 -41 110 -64 155 -23 44 -42 84 -42 89 0 5 108 81 240
170 l240 161 3 68 c2 37 0 67 -3 67 -3 0 -123 -90 -267 -201 -253 -195 -261
-200 -279 -182 -18 18 -11 25 256 258 l275 240 0 83 0 82 -82 -1 -83 0 -239
-275 c-226 -259 -240 -273 -257 -258 -11 9 -15 22 -11 29 4 7 93 123 197 259
105 136 192 252 193 257 2 5 -26 9 -62 9 l-66 0 -161 -242 c-89 -134 -163
-245 -165 -246 -1 -2 -44 17 -94 42 -51 25 -123 56 -161 67 -38 12 -69 26 -69
32 0 7 45 211 99 455 l98 443 -64 56 c-35 30 -66 54 -67 52 -2 -2 -36 -224
-75 -494 -39 -269 -73 -495 -75 -501 -3 -6 -16 -9 -30 -7 -23 5 -25 9 -21 47
3 22 21 267 41 544 l36 503 -63 57 c-98 90 -84 89 -170 8z m158 -16 l60 -55
-38 -510 c-21 -280 -38 -525 -38 -542 l-1 -33 -59 0 -59 0 -6 58 c-3 31 -22
275 -41 542 l-36 485 68 62 c37 33 73 58 79 55 6 -4 38 -32 71 -62z m308 -279
c-3 -14 -48 -215 -99 -446 l-92 -420 -28 -3 c-25 -3 -28 -1 -23 20 3 13 36
235 73 494 l69 472 53 -46 c45 -38 52 -49 47 -71z m-600 -384 c69 -468 70
-482 51 -490 -11 -4 -23 -4 -27 0 -3 4 -51 208 -105 452 l-97 444 47 44 c26
25 50 42 54 39 3 -4 38 -224 77 -489z m-468 -392 c89 -132 162 -242 162 -245
1 -3 -8 -11 -19 -17 -17 -12 -35 8 -215 242 -107 140 -195 257 -195 260 0 3
24 5 53 3 l52 -3 162 -240z m1653 240 c0 -3 -88 -120 -196 -260 -172 -225
-198 -254 -212 -243 -10 7 -18 13 -20 14 -4 2 294 451 316 477 10 12 30 17 64
17 26 0 48 -2 48 -5z m-1827 -287 l238 -272 -39 -39 -40 -40 -271 238 -271
238 0 74 0 73 73 0 72 0 238 -272z m2117 198 l0 -73 -271 -238 -271 -237 -40
39 -39 40 238 271 238 272 73 0 72 0 0 -74z m-2247 -419 c235 -181 247 -191
231 -208 -10 -11 -22 -15 -29 -11 -8 4 -117 77 -244 162 l-231 155 0 53 c0 40
3 51 13 46 6 -4 123 -93 260 -197z m2267 150 l0 -53 -245 -164 c-233 -156
-246 -163 -259 -144 -8 10 -12 22 -8 26 14 13 504 388 508 388 2 0 4 -24 4
-53z m-1143 12 c108 -14 258 -67 355 -125 110 -65 247 -202 312 -312 121 -204
162 -438 115 -665 -60 -297 -250 -536 -525 -663 -131 -61 -210 -77 -379 -78
-177 -1 -264 18 -410 89 -543 263 -694 961 -309 1429 200 243 524 368 841 325z
m-1345 -684 c153 -30 281 -55 283 -55 3 0 5 -11 5 -25 0 -14 -3 -25 -6 -25
-23 0 -630 82 -633 86 -5 4 59 74 68 74 2 0 130 -25 283 -55z m2758 20 c18
-19 32 -37 29 -39 -4 -4 -603 -86 -629 -86 -5 0 -10 11 -10 24 0 22 9 25 273
79 149 30 279 55 288 56 8 1 30 -15 49 -34z m-2762 -181 l282 -18 0 -58 c0
-49 -3 -58 -17 -58 -10 0 -174 -10 -365 -22 l-348 -22 -50 49 -50 49 52 54 53
54 80 -5 c44 -3 207 -14 363 -23z m2940 -27 l52 -53 -50 -49 -49 -49 -366 24
-366 24 3 55 3 56 310 21 c450 31 401 34 463 -29z m-2648 -201 c0 -28 32 -19
-333 -92 l-238 -47 -37 36 c-20 20 -34 38 -31 40 3 4 577 82 622 86 12 1 17
-6 17 -23z m2210 -22 c157 -20 287 -38 289 -41 3 -2 -11 -20 -31 -40 l-37 -36
-238 47 c-366 73 -333 64 -333 93 0 23 3 25 33 20 17 -3 160 -23 317 -43z
m-2040 -388 c0 -11 -491 -396 -505 -396 -3 0 -5 24 -5 53 l1 52 242 161 c236
157 267 172 267 130z m2030 -343 c0 -29 -2 -53 -5 -53 -3 0 -120 88 -261 196
-243 187 -254 197 -239 214 16 18 28 12 261 -143 l243 -162 1 -52z m-2136 -72
l-238 -271 -73 0 -73 0 0 73 0 72 272 238 272 238 39 -39 40 -40 -239 -271z
m1860 99 l256 -225 0 -72 0 -73 -73 0 -73 0 -238 271 -238 271 38 39 c32 33
40 37 55 26 10 -6 133 -113 273 -237z m-1536 107 c8 -10 -27 -69 -144 -242
-86 -127 -159 -236 -163 -243 -5 -9 -25 -12 -60 -10 l-53 3 193 253 c107 138
199 252 205 252 6 0 16 -6 22 -13z m1313 -242 l191 -250 -52 -3 c-29 -2 -53
-2 -55 0 -1 2 -75 111 -164 242 -128 190 -159 242 -149 253 6 8 17 13 24 11 7
-2 99 -115 205 -253z m-933 80 c6 -6 -131 -930 -140 -940 -5 -6 -26 8 -54 37
l-47 46 93 418 c50 231 94 427 97 437 3 13 10 16 26 11 12 -3 23 -8 25 -9z
m355 -17 c3 -13 47 -207 97 -433 l91 -410 -46 -42 c-26 -24 -50 -43 -54 -43
-6 0 -142 903 -141 938 0 6 11 12 24 12 16 0 26 -7 29 -22z m-143 0 c1 -7 18
-245 39 -528 l39 -515 -67 -62 c-36 -34 -68 -62 -71 -62 -3 0 -35 28 -73 62
l-67 62 35 495 c20 272 38 510 41 528 5 32 5 32 64 32 41 0 60 -4 60 -12z"/>
<path d="M8018 5390 c17 -11 32 -24 32 -30 0 -5 10 -10 23 -9 15 0 17 2 7 6
-8 3 -28 17 -43 29 -16 13 -34 24 -40 24 -7 0 3 -9 21 -20z"/>
<path d="M7970 5381 c0 -11 4 -22 9 -25 4 -3 6 6 3 19 -5 30 -12 33 -12 6z"/>
<path d="M8188 5383 c6 -2 18 -2 25 0 6 3 1 5 -13 5 -14 0 -19 -2 -12 -5z"/>
<path d="M8169 5366 c13 -16 51 -41 51 -33 0 2 -15 14 -32 27 -21 15 -28 17
-19 6z"/>
<path d="M8241 5363 c7 -12 15 -20 18 -17 3 2 -3 12 -13 22 -17 16 -18 16 -5
-5z"/>
<path d="M8186 5313 c-6 -14 -5 -15 5 -6 7 7 10 15 7 18 -3 3 -9 -2 -12 -12z"/>
<path d="M8261 5314 c0 -11 3 -14 6 -6 3 7 2 16 -1 19 -3 4 -6 -2 -5 -13z"/>
<path d="M8180 5290 l-35 -7 32 -2 c17 0 35 4 38 9 3 6 5 9 3 9 -2 -1 -19 -5
-38 -9z"/>
<path d="M8040 5255 c-7 -8 -16 -13 -20 -10 -4 3 -14 -3 -21 -13 -13 -15 -12
-16 4 -3 15 12 17 10 18 -20 l2 -34 4 30 c3 17 12 38 20 48 9 9 14 17 11 17
-3 0 -11 -7 -18 -15z"/>
<path d="M8127 5263 c-14 -13 -6 -23 17 -23 14 0 27 4 30 9 3 4 -6 6 -21 3
-18 -3 -24 -1 -19 7 8 12 3 15 -7 4z"/>
<path d="M7978 5253 c7 -3 16 -2 19 1 4 3 -2 6 -13 5 -11 0 -14 -3 -6 -6z"/>
<path d="M7861 5197 c-13 -21 -12 -21 5 -5 10 10 16 20 13 22 -3 3 -11 -5 -18
-17z"/>
<path d="M7959 5202 c-13 -15 -12 -16 4 -3 15 12 17 11 17 -12 0 -14 4 -28 8
-31 5 -3 6 8 4 25 -5 37 -16 44 -33 21z"/>
<path d="M7926 5158 c-9 -12 -15 -34 -15 -48 l2 -25 4 25 5 24 15 -24 c9 -17
12 -18 8 -5 -4 11 -9 29 -12 40 -4 16 -3 17 6 5 9 -12 11 -11 11 8 0 28 -5 28
-24 0z"/>
<path d="M7921 5063 c-1 -24 13 -31 25 -11 4 6 3 8 -4 4 -6 -3 -13 2 -15 11
-4 14 -5 13 -6 -4z"/>
<path d="M3180 5170 c8 -5 20 -10 25 -10 6 0 3 5 -5 10 -8 5 -19 10 -25 10 -5
0 -3 -5 5 -10z"/>
<path d="M3318 5043 c7 -3 16 -2 19 1 4 3 -2 6 -13 5 -11 0 -14 -3 -6 -6z"/>
<path d="M3915 5040 c-11 -18 6 -50 31 -56 24 -6 54 9 54 28 0 5 -7 2 -16 -6
-19 -19 -25 -20 -49 -2 -11 8 -16 19 -12 30 7 18 2 22 -8 6z"/>
<path d="M3940 5025 c0 -8 6 -15 14 -15 22 0 28 17 10 24 -22 9 -24 8 -24 -9z"/>
<path d="M3328 5013 c7 -3 16 -2 19 1 4 3 -2 6 -13 5 -11 0 -14 -3 -6 -6z"/>
<path d="M3438 4933 c6 -2 18 -2 25 0 6 3 1 5 -13 5 -14 0 -19 -2 -12 -5z"/>
<path d="M3303 4913 c15 -2 39 -2 55 0 15 2 2 4 -28 4 -30 0 -43 -2 -27 -4z"/>
<path d="M3283 4863 c15 -2 39 -2 55 0 15 2 2 4 -28 4 -30 0 -43 -2 -27 -4z"/>
<path d="M3308 4793 c12 -2 30 -2 40 0 9 3 -1 5 -23 4 -22 0 -30 -2 -17 -4z"/>
<path d="M3318 4673 c6 -2 18 -2 25 0 6 3 1 5 -13 5 -14 0 -19 -2 -12 -5z"/>
<path d="M3459 4433 c-13 -16 -12 -17 4 -4 16 13 21 21 13 21 -2 0 -10 -8 -17
-17z"/>
<path d="M4670 5100 c-8 -5 -10 -10 -5 -10 6 0 17 5 25 10 8 5 11 10 5 10 -5
0 -17 -5 -25 -10z"/>
<path d="M4600 5070 c-8 -5 -10 -10 -5 -10 6 0 17 5 25 10 8 5 11 10 5 10 -5
0 -17 -5 -25 -10z"/>
<path d="M4658 5033 c7 -3 16 -2 19 1 4 3 -2 6 -13 5 -11 0 -14 -3 -6 -6z"/>
<path d="M4618 5023 c7 -3 16 -2 19 1 4 3 -2 6 -13 5 -11 0 -14 -3 -6 -6z"/>
<path d="M4578 5013 c7 -3 16 -2 19 1 4 3 -2 6 -13 5 -11 0 -14 -3 -6 -6z"/>
<path d="M4598 4963 c12 -2 32 -2 45 0 12 2 2 4 -23 4 -25 0 -35 -2 -22 -4z"/>
<path d="M4468 4933 c6 -2 18 -2 25 0 6 3 1 5 -13 5 -14 0 -19 -2 -12 -5z"/>
<path d="M4558 4913 c18 -2 45 -2 60 0 15 2 0 4 -33 4 -33 0 -45 -2 -27 -4z"/>
<path d="M4593 4863 c15 -2 37 -2 50 0 12 2 0 4 -28 4 -27 0 -38 -2 -22 -4z"/>
<path d="M4583 4793 c9 -2 25 -2 35 0 9 3 1 5 -18 5 -19 0 -27 -2 -17 -5z"/>
<path d="M4588 4673 c7 -3 16 -2 19 1 4 3 -2 6 -13 5 -11 0 -14 -3 -6 -6z"/>
<path d="M4321 4334 c0 -11 3 -14 6 -6 3 7 2 16 -1 19 -3 4 -6 -2 -5 -13z"/>
<path d="M8325 4780 c-3 -5 -1 -10 4 -10 6 0 11 5 11 10 0 6 -2 10 -4 10 -3 0
-8 -4 -11 -10z"/>
<path d="M3282 3730 c0 -14 2 -19 5 -12 2 6 2 18 0 25 -3 6 -5 1 -5 -13z"/>
<path d="M4690 3721 c0 -11 4 -22 9 -25 4 -3 6 6 3 19 -5 30 -12 33 -12 6z"/>
<path d="M3769 3563 c-13 -16 -12 -17 4 -4 9 7 17 15 17 17 0 8 -8 3 -21 -13z"/>
<path d="M3912 3455 c0 -16 2 -22 5 -12 2 9 2 23 0 30 -3 6 -5 -1 -5 -18z"/>
<path d="M4043 3435 c0 -27 2 -38 4 -22 2 15 2 37 0 50 -2 12 -4 0 -4 -28z"/>
<path d="M4161 3424 c0 -11 3 -14 6 -6 3 7 2 16 -1 19 -3 4 -6 -2 -5 -13z"/>
<path d="M3801 3404 c0 -11 3 -14 6 -6 3 7 2 16 -1 19 -3 4 -6 -2 -5 -13z"/>
<path d="M973 4508 c-23 -13 -210 -175 -417 -360 -401 -362 -419 -382 -494
-548 -88 -194 -62 -373 74 -506 138 -136 304 -150 514 -44 53 27 58 28 88 13
17 -8 49 -35 71 -58 45 -49 117 -185 103 -194 -46 -30 -352 -297 -354 -310 -7
-34 14 -200 38 -309 62 -277 189 -554 356 -776 77 -102 260 -284 358 -357 157
-115 341 -215 524 -284 124 -46 368 -108 506 -129 151 -23 605 -70 1135 -116
740 -66 691 -57 1742 -326 422 -108 775 -197 783 -197 8 0 112 25 230 56 621
161 1370 349 1482 371 165 33 299 50 588 76 524 45 595 52 830 75 492 50 602
66 807 120 519 136 911 406 1186 818 164 245 299 627 314 887 l6 106 -179 149
c-99 81 -181 149 -182 151 -2 1 15 39 38 83 28 54 59 97 93 127 61 55 72 55
197 -2 81 -37 90 -39 185 -39 90 0 106 3 160 29 128 63 226 205 233 339 5 87
-10 160 -53 254 -74 160 -100 190 -426 478 -167 147 -338 301 -379 341 -83 81
-126 104 -197 104 -79 0 -138 -51 -171 -149 -14 -39 -16 -140 -3 -159 4 -7 86
-56 182 -108 96 -53 176 -97 177 -99 6 -6 -18 -116 -40 -183 l-20 -62 -67 59
c-57 50 -79 63 -154 86 -70 22 -100 27 -148 22 -225 -20 -531 -337 -605 -626
-37 -145 0 -275 111 -398 55 -61 198 -165 263 -192 40 -17 40 -27 1 -138 -139
-395 -413 -650 -864 -802 -227 -76 -438 -107 -930 -136 -435 -25 -640 -43
-795 -71 -249 -44 -1166 -292 -1713 -462 l-158 -50 -157 50 c-599 188 -1534
437 -1777 473 -132 19 -397 41 -730 60 -576 34 -786 71 -1073 191 -363 152
-597 394 -721 747 -39 111 -39 121 2 138 62 26 205 129 260 189 113 121 150
254 113 401 -74 289 -380 606 -605 626 -48 5 -78 0 -148 -22 -75 -23 -97 -36
-154 -86 l-66 -59 -16 43 c-18 45 -47 162 -47 187 0 10 67 52 179 113 99 54
182 105 185 114 10 25 7 118 -6 154 -18 55 -56 108 -91 129 -45 28 -121 26
-174 -2z m182 -51 c47 -49 68 -109 63 -177 l-3 -45 -165 -91 c-110 -61 -167
-88 -172 -80 -4 6 -8 77 -8 158 l0 146 33 44 c40 53 106 88 166 88 39 0 49 -5
86 -43z m9865 21 c25 -13 59 -42 77 -66 l33 -44 0 -121 c0 -67 -3 -138 -6
-158 l-6 -36 -167 91 -166 91 -3 45 c-5 68 16 128 63 177 37 38 47 43 86 43
27 0 63 -9 89 -22z m-10181 -263 c2 -274 50 -453 151 -568 49 -55 142 -104
219 -114 l55 -8 -110 -91 c-260 -215 -468 -349 -630 -404 -154 -53 -312 -2
-410 132 -100 135 -101 277 -4 467 21 42 54 98 72 124 28 41 631 595 649 596
4 1 7 -60 8 -134z m10658 -158 c300 -266 327 -295 396 -434 94 -185 91 -328
-9 -464 -41 -56 -85 -91 -156 -124 -138 -64 -317 -11 -601 179 -106 71 -314
235 -361 285 l-30 31 42 0 c98 0 221 78 279 177 64 110 103 305 103 518 l0
126 23 -18 c12 -10 154 -134 314 -276z m-10113 -166 c158 -55 348 -244 449
-446 47 -95 67 -166 67 -242 0 -62 -1 -65 -46 -113 -76 -81 -107 -68 -158 63
-46 119 -94 167 -166 167 -24 0 -44 -12 -88 -53 -31 -30 -156 -138 -276 -241
l-220 -187 -34 66 c-38 72 -101 149 -144 175 l-28 17 75 47 c101 64 289 206
409 309 104 90 136 138 136 204 0 43 -35 80 -81 87 -128 18 -165 27 -183 46
-16 16 -18 25 -10 47 8 22 21 31 79 50 86 27 150 29 219 4z m9451 -4 c58 -19
71 -28 79 -50 8 -22 6 -31 -10 -47 -18 -19 -55 -28 -183 -46 -79 -12 -103 -86
-54 -175 40 -75 266 -264 486 -407 88 -57 104 -71 88 -77 -32 -10 -115 -108
-152 -179 -19 -36 -37 -65 -41 -63 -9 3 -408 348 -485 420 -48 44 -70 57 -93
57 -72 0 -120 -49 -166 -167 -51 -132 -84 -145 -158 -62 -44 49 -46 54 -46
113 0 152 102 349 264 512 128 128 246 193 351 193 28 0 81 -10 120 -22z
m-9733 -140 c18 -9 69 -20 112 -26 114 -14 138 -45 99 -127 l-18 -36 -62 5
c-104 10 -187 55 -242 132 l-31 44 42 40 43 39 11 -27 c6 -15 27 -35 46 -44z
m9936 -4 c9 -5 -42 -74 -75 -104 -52 -45 -113 -69 -191 -76 l-67 -5 -18 36
c-39 82 -15 113 99 127 96 12 144 34 158 71 l10 28 41 -38 c22 -20 41 -38 43
-39z m-9459 -467 c35 -19 49 -41 90 -142 18 -45 43 -92 56 -104 29 -28 72 -29
111 -3 l28 18 -19 -35 c-33 -57 -147 -162 -231 -212 -106 -64 -110 -65 -118
-33 -13 52 -25 223 -26 357 0 130 1 138 22 152 28 20 51 20 87 2z m8929 -2
c21 -14 22 -22 22 -152 -1 -134 -13 -305 -26 -357 -8 -32 -12 -30 -118 33 -86
52 -189 146 -224 206 l-23 39 26 -17 c38 -25 81 -23 110 4 14 13 39 59 56 103
37 96 54 123 88 142 34 19 62 18 89 -1z m-9049 -492 c54 -282 165 -499 350
-683 112 -112 211 -181 365 -255 302 -145 552 -194 1171 -229 319 -18 582 -40
719 -60 238 -35 1091 -261 1729 -459 l208 -64 192 60 c614 191 1510 429 1742
463 139 20 402 42 720 60 497 28 709 59 940 136 147 49 316 129 421 199 107
72 259 225 328 333 144 220 211 451 225 766 l6 153 233 -198 c129 -110 244
-206 256 -214 12 -8 97 -77 189 -154 l166 -138 -5 -47 c-24 -218 -60 -371
-128 -545 -262 -671 -811 -1091 -1598 -1225 -139 -24 -668 -79 -1208 -126
-617 -54 -705 -68 -1189 -191 -161 -41 -497 -126 -746 -190 -249 -63 -474
-121 -499 -128 -39 -12 -53 -12 -93 0 -119 37 -1552 395 -1668 418 -170 33
-310 51 -585 76 -124 11 -331 29 -460 40 -336 30 -788 78 -905 96 -500 79
-941 297 -1236 612 -234 249 -406 582 -478 927 -24 114 -43 277 -33 287 4 3
194 162 422 353 l415 346 6 -153 c4 -89 16 -202 28 -266z"/>
<path d="M1110 2199 c-118 -72 -219 -135 -225 -140 -6 -6 -1 -26 15 -54 14
-25 25 -45 26 -45 1 0 42 25 91 55 50 30 94 55 100 55 14 0 33 -46 33 -80 0
-15 -20 -73 -45 -128 -25 -55 -45 -104 -45 -110 0 -13 53 -101 61 -102 9 0 97
191 104 227 l7 33 36 -25 c70 -48 167 -26 213 47 36 58 23 110 -59 245 -39 65
-77 126 -84 135 -12 16 -32 6 -228 -113z m261 -115 c32 -60 33 -62 16 -87 -19
-30 -62 -45 -86 -30 -26 15 -110 147 -100 157 4 5 30 22 56 37 l48 28 17 -21
c9 -12 31 -50 49 -84z"/>
<path d="M10455 1971 c-173 -78 -214 -281 -69 -337 56 -21 98 -11 202 52 42
25 85 44 102 44 78 0 58 -125 -26 -165 -33 -16 -40 -16 -75 -2 l-39 15 -30
-38 c-16 -21 -30 -41 -30 -44 0 -14 83 -46 120 -46 90 0 203 97 230 199 21 80
-32 167 -116 190 -47 13 -104 -5 -189 -58 -77 -49 -115 -60 -134 -37 -19 23
-6 63 35 104 32 32 38 34 79 29 40 -6 46 -4 74 29 17 19 31 37 31 40 0 9 -84
44 -105 44 -11 0 -38 -9 -60 -19z"/>
<path d="M1425 1743 c-88 -103 -166 -195 -173 -204 -11 -16 5 -32 140 -149
l152 -132 29 32 29 32 -21 22 c-11 11 -61 55 -110 96 -49 41 -90 78 -90 81 -1
3 20 29 47 57 l47 52 99 -85 99 -86 28 27 c16 15 29 31 29 35 0 5 -43 45 -95
90 -52 45 -95 86 -95 92 0 5 16 27 35 48 l35 39 109 -95 110 -95 27 36 c27 35
27 35 8 53 -17 16 -226 196 -264 227 -13 11 -39 -14 -175 -173z"/>
<path d="M10008 1623 c-41 -22 -46 -29 -42 -52 2 -14 18 -127 34 -251 17 -124
33 -240 36 -258 l5 -33 50 27 c43 24 49 31 45 53 -3 14 -8 44 -11 66 l-6 40
95 50 95 49 48 -41 49 -41 47 26 c26 14 47 28 47 32 0 8 -417 350 -434 356 -6
2 -32 -8 -58 -23z m155 -186 l68 -60 -58 -33 c-32 -18 -61 -34 -64 -34 -3 0
-11 37 -18 83 -7 45 -15 90 -18 101 -7 25 6 17 90 -57z"/>
<path d="M1816 1405 c-58 -129 -106 -237 -106 -239 0 -7 76 -46 88 -46 4 0 25
39 47 88 21 48 39 88 40 90 1 1 33 -12 70 -29 138 -62 217 -47 268 52 33 62
33 122 0 168 -18 26 -251 149 -284 150 -12 1 -46 -64 -123 -234z m233 87 c30
-15 63 -40 74 -55 20 -26 20 -28 4 -62 -22 -47 -53 -53 -127 -25 -33 13 -63
27 -66 32 -6 9 46 138 56 137 3 0 29 -12 59 -27z"/>
<path d="M9703 1489 c-18 -5 -33 -12 -33 -15 0 -3 18 -77 40 -166 23 -88 39
-162 37 -164 -1 -2 -67 61 -146 140 l-143 143 -45 -10 c-25 -6 -47 -17 -50
-24 -3 -7 23 -124 57 -261 l61 -250 41 10 c23 5 44 11 48 13 4 3 -7 67 -25
142 -19 76 -36 152 -40 168 -6 25 17 6 138 -114 l145 -144 51 13 c28 6 51 15
51 18 0 4 -27 121 -61 260 -67 272 -60 260 -126 241z"/>
<path d="M2330 1469 c0 -2 -16 -83 -35 -179 -49 -246 -46 -284 25 -344 60 -50
194 -71 264 -42 67 28 80 57 126 291 17 83 32 160 35 172 4 19 -1 23 -46 32
-29 6 -53 10 -55 9 -1 -2 -17 -77 -34 -168 -39 -199 -51 -234 -91 -251 -37
-15 -99 1 -129 33 -28 30 -26 66 14 261 37 185 40 169 -36 183 -21 3 -38 5
-38 3z"/>
<path d="M9122 1381 c-11 -7 -8 -56 15 -270 l28 -262 50 7 c27 3 51 8 53 9 2
2 -9 121 -24 264 l-28 261 -40 0 c-23 0 -47 -4 -54 -9z"/>
<path d="M2832 1159 c-13 -123 -25 -242 -28 -265 l-6 -41 114 -11 c63 -7 146
-12 185 -12 62 0 75 3 103 26 79 67 81 178 4 229 l-27 18 26 14 c79 41 72 174
-11 217 -35 18 -122 33 -248 42 l-90 7 -22 -224z m298 101 c27 -14 27 -71 0
-95 -17 -15 -31 -16 -106 -10 l-86 7 6 36 c3 21 6 48 6 61 0 24 1 24 80 18 44
-4 89 -11 100 -17z m-76 -200 c70 -11 96 -32 96 -75 0 -57 -26 -69 -131 -62
-50 3 -93 8 -96 11 -3 3 -2 35 2 71 7 65 7 65 38 65 18 0 58 -4 91 -10z"/>
<path d="M8670 1339 c-47 -5 -90 -11 -95 -13 -7 -2 -2 -93 14 -265 l25 -261
54 0 54 0 -7 93 c-4 50 -8 96 -9 101 0 5 38 15 86 22 143 19 193 63 193 167 0
47 -6 71 -23 98 -41 68 -94 78 -292 58z m186 -101 c8 -7 16 -28 20 -45 10 -50
-26 -79 -110 -88 -37 -4 -68 -6 -70 -4 -2 2 -6 36 -10 76 l-6 72 42 4 c64 7
119 0 134 -15z"/>
<path d="M3405 1320 c-8 -13 -47 -511 -41 -517 7 -7 251 -32 323 -33 40 0 42
1 49 36 3 19 3 39 -2 44 -5 4 -64 12 -131 17 -68 5 -125 11 -127 14 -2 2 5 96
15 209 10 113 18 210 19 217 0 11 -99 23 -105 13z"/>
<path d="M8294 1295 c-6 -14 33 -516 41 -523 1 -2 26 0 54 4 l51 7 -6 61 c-3
33 -13 151 -22 261 l-17 200 -48 3 c-36 2 -49 -1 -53 -13z"/>
<path d="M3860 1279 c0 -8 -9 -126 -21 -262 -12 -136 -18 -251 -15 -254 4 -4
28 -7 54 -7 l47 -1 22 259 c13 143 21 262 18 264 -2 3 -27 7 -55 10 -38 3 -50
1 -50 -9z"/>
<path d="M4072 1009 c-23 -144 -41 -263 -40 -264 2 -1 26 -5 54 -9 l51 -6 13
79 12 80 51 35 51 36 51 -132 c55 -141 54 -140 138 -152 59 -9 62 -26 -33 189
-39 87 -67 162 -63 165 5 4 53 40 108 80 55 40 104 76 108 80 5 4 -23 13 -62
20 l-71 12 -122 -96 c-67 -52 -124 -93 -126 -91 -2 2 4 52 13 110 9 59 15 108
13 110 -2 2 -26 7 -53 10 l-50 7 -43 -263z"/>
<path d="M7791 1251 c-12 -8 -11 -45 9 -255 13 -136 27 -252 31 -258 7 -11
173 -1 327 19 l43 6 -3 41 -3 41 -80 -5 c-44 -2 -105 -5 -135 -5 l-55 0 -22
210 c-11 116 -22 211 -22 213 -3 6 -78 1 -90 -7z"/>
<path d="M7512 1210 c-18 -4 -35 -10 -38 -12 -2 -3 20 -121 48 -262 l53 -257
45 6 c25 4 48 10 53 14 4 4 -16 123 -45 264 -41 203 -56 257 -68 256 -8 -1
-30 -5 -48 -9z"/>
<path d="M7053 1098 c-88 -22 -123 -35 -123 -46 0 -14 121 -493 126 -501 5 -6
104 20 104 27 0 4 -11 48 -24 97 -13 50 -24 90 -23 91 1 0 42 13 92 28 131 41
177 97 160 195 -14 83 -76 141 -150 140 -22 0 -95 -14 -162 -31z m182 -88 c23
-25 24 -74 1 -99 -18 -19 -130 -56 -145 -47 -6 4 -27 83 -35 133 -1 10 79 31
125 32 24 1 42 -6 54 -19z"/>
<path d="M4698 887 l-166 -232 36 -12 c66 -21 77 -17 112 37 18 28 34 50 37
50 2 0 49 -12 103 -26 107 -29 110 -32 110 -105 0 -20 6 -41 13 -46 15 -12 97
-36 103 -30 2 2 -12 125 -31 273 -19 148 -35 274 -35 281 0 7 -19 17 -42 23
-24 6 -50 13 -58 15 -10 3 -69 -72 -182 -228z m206 -44 l7 -72 -28 9 c-15 5
-47 14 -71 20 l-42 11 57 83 58 83 6 -31 c4 -17 10 -63 13 -103z"/>
<path d="M5509 929 c-1 -2 -18 -121 -38 -264 l-37 -260 37 -9 c21 -5 44 -6 51
-3 9 3 20 53 32 153 11 82 22 155 26 162 3 7 41 -66 86 -168 83 -191 80 -186
154 -192 l34 -3 36 263 36 263 -22 5 c-12 3 -35 4 -50 2 l-29 -3 -21 -156
c-12 -86 -23 -161 -25 -168 -2 -6 -42 74 -88 179 -78 177 -85 190 -110 190
-14 0 -36 3 -48 6 -13 4 -24 5 -24 3z"/>
<path d="M6230 900 c-65 -14 -130 -59 -164 -113 -37 -61 -47 -165 -22 -249 21
-72 80 -140 144 -165 99 -38 248 -11 324 60 l36 32 -11 104 -10 104 -71 -7
c-144 -13 -167 -18 -162 -33 4 -8 6 -28 6 -45 l0 -30 66 7 65 7 -3 -38 c-3
-33 -9 -42 -43 -61 -27 -15 -57 -23 -90 -23 -98 0 -146 59 -153 185 -2 55 1
78 16 104 24 45 74 71 135 71 42 0 54 -5 83 -34 l34 -34 50 16 49 16 -22 39
c-41 73 -148 109 -257 87z"/>
</g>
</svg>
