<?xml version="1.0" ?><svg viewBox="0 0 32 32" xmlns="http://www.w3.org/2000/svg"><title/><g data-name="Layer 28" id="Layer_28"><path d="M28,13.21l-2.78-.43a9.94,9.94,0,0,0-.43-1l1.66-2.27A1.16,1.16,0,0,0,26.35,8L24,5.65a1.16,1.16,0,0,0-1.51-.12L20.26,7.19a9.94,9.94,0,0,0-1-.43L18.79,4a1.16,1.16,0,0,0-1.15-1H14.36a1.16,1.16,0,0,0-1.15,1l-.43,2.78a9.88,9.88,0,0,0-1,.43L9.47,5.53A1.16,1.16,0,0,0,8,5.65L5.65,8a1.16,1.16,0,0,0-.12,1.51l1.66,2.27a9.8,9.8,0,0,0-.43,1L4,13.21a1.16,1.16,0,0,0-1,1.15v3.28a1.16,1.16,0,0,0,1,1.15l2.78.43a9.67,9.67,0,0,0,.43,1L5.53,22.53A1.16,1.16,0,0,0,5.65,24L8,26.35a1.16,1.16,0,0,0,1.51.12l2.27-1.66a9.88,9.88,0,0,0,1,.43L13.21,28a1.16,1.16,0,0,0,1.15,1h3.28a1.16,1.16,0,0,0,1.15-1l.43-2.78a9.94,9.94,0,0,0,1-.43l2.27,1.66A1.16,1.16,0,0,0,24,26.35L26.35,24a1.16,1.16,0,0,0,.12-1.51l-1.66-2.27a9.7,9.7,0,0,0,.43-1L28,18.79a1.16,1.16,0,0,0,1-1.15V14.36A1.16,1.16,0,0,0,28,13.21Zm-1.34,3.43L24.17,17a1.16,1.16,0,0,0-.94.85,7.42,7.42,0,0,1-.78,1.88A1.16,1.16,0,0,0,22.51,21L24,23.1,23.1,24,21,22.51a1.16,1.16,0,0,0-1.27-.06,7.36,7.36,0,0,1-1.88.78,1.16,1.16,0,0,0-.85.94l-.39,2.51H15.35L15,24.17a1.16,1.16,0,0,0-.85-.94,7.38,7.38,0,0,1-1.88-.78,1.16,1.16,0,0,0-1.27.06L8.91,24,8,23.1,9.49,21a1.16,1.16,0,0,0,.06-1.27,7.39,7.39,0,0,1-.78-1.88A1.16,1.16,0,0,0,7.83,17l-2.51-.39V15.35L7.83,15a1.16,1.16,0,0,0,.94-.85,7.4,7.4,0,0,1,.78-1.88A1.16,1.16,0,0,0,9.49,11L8,8.9,8.91,8,11,9.49a1.16,1.16,0,0,0,1.27.06,7.38,7.38,0,0,1,1.88-.78A1.16,1.16,0,0,0,15,7.83l.39-2.51h1.29L17,7.83a1.16,1.16,0,0,0,.85.94,7.36,7.36,0,0,1,1.88.78A1.16,1.16,0,0,0,21,9.49L23.1,8,24,8.9,22.51,11a1.16,1.16,0,0,0-.06,1.27,7.36,7.36,0,0,1,.78,1.88,1.16,1.16,0,0,0,.94.85l2.51.39Z"/><path d="M16,11.1A4.9,4.9,0,1,0,20.9,16,4.9,4.9,0,0,0,16,11.1Zm0,7.47A2.57,2.57,0,1,1,18.57,16,2.58,2.58,0,0,1,16,18.57Z"/></g></svg>